PathFileType	4	(X/Y/Z)	./resultDataOpenSim/trcMotMarkerGrf/sub09/qtm-04-03.trc
DataRate	CameraRate	NumFrames	NumMarkers	Units	OrigDataRate	OrigDataStartFrame	OrigNumFrames
250.000000	250.000000	8	24	m	250.000000	62	491
Frame#	Time	L.Toe.Tip			R.Toe.Tip			L.Ankle.Lat			R.Ankle.Lat			L.Ankle.Med			R.Ankle.Med			L.Heel			R.Heel			L.Knee.Lat			R.Knee.Lat			L.Knee.Med			R.Knee.Med			L.Thigh.Upper			R.Thigh.Upper			L.ASIS			R.ASIS			V.Sacral			L.Acromium			R.Acromium			C7			L.Elbow			R.Elbow			L.Wrist.Lat			R.Wrist.Lat
		X1	Y1	Z1	X2	Y2	Z2	X3	Y3	Z3	X4	Y4	Z4	X5	Y5	Z5	X6	Y6	Z6	X7	Y7	Z7	X8	Y8	Z8	X9	Y9	Z9	X10	Y10	Z10	X11	Y11	Z11	X12	Y12	Z12	X13	Y13	Z13	X14	Y14	Z14	X15	Y15	Z15	X16	Y16	Z16	X17	Y17	Z17	X18	Y18	Z18	X19	Y19	Z19	X20	Y20	Z20	X21	Y21	Z21	X22	Y22	Z22	X23	Y23	Z23	X24	Y24	Z24

62	0.244	-1.434668	0.082472774	-0.022058411	-0.61043103	0.040195939	0.15693124	-1.44196	0.23835714	-0.076222296	-0.75814326	0.055750098	0.19211361	-1.4225022	0.22575195	0.018576211	-0.75027042	0.091173556	0.099396508	-1.5031472	0.28857636	-0.035748534	-0.82643836	0.032089212	0.14406956	-1.0627599	0.41280357	-0.079578794	-0.72529346	0.50934192	0.23327111	-1.063633	0.39919751	0.046607442	-0.74379241	0.49287084	0.10778786	-0.97601112	0.81164282	-0.090116335	-0.96117471	0.84620031	0.28272389	-0.87933074	0.89335905	-0.031744218	-0.88535903	0.92579146	0.20687861	-1.0471069	0.97140268	0.079835422	-0.84481518	1.3675291	-0.058722716	-0.92119316	1.3659594	0.26277834	-0.95573224	1.4187317	0.090567567	-0.93880729	1.0048081	-0.14731333	-1.0876199	1.0420801	0.30305539	-0.70305955	0.87352545	-0.10273492	-1.0038566	0.79096013	0.37692494
63	0.248	-1.4222381	0.085534146	-0.02419725	-0.61024001	0.04005083	0.15664127	-1.4297437	0.2419454	-0.075776327	-0.75795023	0.055869297	0.19191086	-1.4101113	0.22821498	0.018959317	-0.74994751	0.091028961	0.099049876	-1.4905696	0.29193793	-0.034332167	-0.82638651	0.03213497	0.14394955	-1.0492113	0.41251077	-0.079294079	-0.72074257	0.50917596	0.23281773	-1.0502489	0.39871108	0.047454461	-0.73996433	0.49282669	0.10731746	-0.96931206	0.8122393	-0.08957497	-0.95472931	0.84696148	0.28312123	-0.87310551	0.89431349	-0.031306106	-0.87903311	0.92654443	0.20739446	-1.0408942	0.97258015	0.080310103	-0.83853368	1.3682771	-0.058614572	-0.91417748	1.3671084	0.26309543	-0.94901993	1.4198381	0.090954192	-0.93304505	1.0056996	-0.14648932	-1.0802445	1.0427548	0.30387863	-0.69896185	0.87140326	-0.10296749	-0.99382932	0.79192296	0.37680745
64	0.252	-1.4092117	0.088470761	-0.026247583	-0.61004961	0.039931214	0.15637845	-1.4172128	0.24529051	-0.075237341	-0.75776133	0.055985324	0.19170694	-1.3973527	0.23043547	0.019397008	-0.74956574	0.090894226	0.098708856	-1.4778695	0.2949138	-0.032782079	-0.82633995	0.032189329	0.14382433	-1.0354857	0.41224812	-0.078866557	-0.71629667	0.50894703	0.23242561	-1.0370174	0.3983803	0.048255626	-0.73627268	0.49275863	0.1068737	-0.96266704	0.81295143	-0.08910303	-0.94811777	0.84793986	0.28353556	-0.8669243	0.89534885	-0.03088246	-0.87271122	0.92740805	0.20782595	-1.0347045	0.97380086	0.080814083	-0.83232002	1.3690907	-0.058564404	-0.9071443	1.3683083	0.26338519	-0.94231201	1.42103	0.091388878	-0.92741214	1.0066089	-0.14570412	-1.0728947	1.0435057	0.30480012	-0.69493348	0.86935143	-0.10324076	-0.98394896	0.79297581	0.37654847
65	0.256	-1.3957383	0.091238372	-0.028185863	-0.60987931	0.039836251	0.1561269	-1.4042818	0.24833882	-0.074635691	-0.75760852	0.056089951	0.19151557	-1.3843049	0.23243871	0.019898874	-0.74917519	0.090762762	0.098380575	-1.4650661	0.29753873	-0.031224313	-0.82631465	0.032240261	0.14369453	-1.021674	0.41204842	-0.078296337	-0.7121489	0.50859525	0.23211356	-1.0239337	0.39815814	0.049007469	-0.73266704	0.49264166	0.1064432	-0.95607047	0.81377122	-0.088691658	-0.94125235	0.84913591	0.28398667	-0.86081912	0.89646148	-0.030508609	-0.86638242	0.92839226	0.2081714	-1.0285581	0.97506124	0.081308586	-0.82616994	1.3699743	-0.058563703	-0.90009501	1.3695529	0.26364793	-0.93567268	1.4222956	0.091716636	-0.92192683	1.0075618	-0.14497956	-1.0655322	1.0443286	0.30585899	-0.6909605	0.86737978	-0.10354828	-0.97415983	0.79410912	0.3761822
66	0.26	-1.3818712	0.093788933	-0.029999771	-0.6097452	0.039760565	0.15588566	-1.3909773	0.25106247	-0.073979302	-0.75750442	0.056182422	0.19134108	-1.3710764	0.2342192	0.020479202	-0.74882846	0.090633576	0.098068145	-1.4521504	0.29983211	-0.02972416	-0.82632146	0.032279722	0.14354928	-1.0078296	0.41200857	-0.077642055	-0.70851545	0.50812591	0.23186477	-1.010853	0.39801285	0.049742651	-0.72911093	0.49245542	0.10601816	-0.94952744	0.81468583	-0.088331632	-0.93423333	0.85051074	0.28445639	-0.85480675	0.89764687	-0.030212154	-0.86003871	0.92948828	0.20844309	-1.0224502	0.97637008	0.081771008	-0.82008835	1.3709308	-0.058607447	-0.89303352	1.3708451	0.26388575	-0.92915829	1.4236191	0.091766421	-0.91653877	1.0085837	-0.1442389	-1.0581598	1.0452206	0.30703529	-0.68704906	0.8655	-0.10389231	-0.96435955	0.7953302	0.37573261
67	0.264	-1.3676127	0.096102411	-0.031673523	-0.60965156	0.039701194	0.15565935	-1.3774993	0.25348237	-0.073228202	-0.75743607	0.056265431	0.19117389	-1.3576682	0.23577557	0.021124103	-0.74854057	0.090513347	0.097763238	-1.4390996	0.30179377	-0.028269998	-0.82636188	0.032312717	0.1433822	-0.99396994	0.41221653	-0.076962836	-0.70542433	0.50762316	0.23163777	-0.99743989	0.39797447	0.0505093	-0.72561289	0.49220121	0.10562995	-0.94305033	0.81569374	-0.088019346	-0.92738392	0.8519934	0.28487976	-0.84885033	0.89891862	-0.02997666	-0.85368776	0.93067794	0.20866417	-1.0163586	0.97775001	0.082204372	-0.81408224	1.3719674	-0.058689606	-0.88596469	1.372193	0.26410184	-0.92277999	1.4249948	0.091507544	-0.91112546	1.0096783	-0.14334024	-1.0508385	1.0461794	0.30822367	-0.68325855	0.86371873	-0.1042888	-0.95447054	0.79665992	0.37520978
68	0.268	-1.3529832	0.098180633	-0.033186487	-0.60959387	0.03965929	0.15544645	-1.3640129	0.25562304	-0.072358541	-0.75738462	0.056339945	0.1910007	-1.3440045	0.23712365	0.021801633	-0.74830113	0.090409535	0.097458908	-1.4258846	0.30342344	-0.02683992	-0.82642882	0.032349391	0.14319901	-0.98012592	0.41270638	-0.076290445	-0.70261208	0.50719573	0.23141704	-0.98326978	0.39811269	0.051340061	-0.72224246	0.49190121	0.10538211	-0.93662117	0.81681622	-0.08775492	-0.9210718	0.85351238	0.28517714	-0.84289294	0.90030127	-0.029761087	-0.847355	0.93194989	0.20886004	-1.0102699	0.97922121	0.082625402	-0.80814899	1.3730932	-0.058798423	-0.87890313	1.3736047	0.26429978	-0.91646866	1.4264337	0.091171427	-0.90558947	1.0108322	-0.14220558	-1.0436164	1.0472032	0.30934592	-0.67970654	0.86203584	-0.10476823	-0.94448741	0.79811334	0.37462505
69	0.272	-1.3380501	0.10002346	-0.034492556	-0.60956618	0.039634547	0.15524389	-1.3504591	0.25747285	-0.071411307	-0.75734662	0.056403705	0.19081533	-1.3300853	0.23827081	0.022513371	-0.74810482	0.090323502	0.097163926	-1.4124912	0.30472334	-0.025430959	-0.82651117	0.032392449	0.14301211	-0.96632492	0.41346011	-0.075633215	-0.69974812	0.50689344	0.23121909	-0.96822632	0.39847165	0.052230849	-0.71910355	0.4915818	0.10541479	-0.93013691	0.81808842	-0.087512659	-0.91537809	0.85503507	0.28533198	-0.83689756	0.9018138	-0.029530008	-0.84106748	0.93330123	0.20905094	-1.0042018	0.98077951	0.083020958	-0.80227872	1.374309	-0.058917261	-0.87187014	1.3750843	0.26448203	-0.9101305	1.4279492	0.091053698	-0.90001666	1.0120451	-0.14093699	-1.0364453	1.0482934	0.31049841	-0.67648583	0.86044509	-0.10534667	-0.93445539	0.79969066	0.37399411
